#N canvas 575 251 821 593 10;
#X obj 141 71 netreceive 3000;
#X obj 275 545 delay 1;
#X obj 216 127 t b;
#X obj 124 419 line;
#X msg 95 338 1 5;
#X msg 131 367 0 10;
#X obj 127 325 delay 50;
#X obj 96 521 dac~;
#N canvas 0 22 450 300 (subpatch) 0;
#X array ch1 24 float 1;
#A 0 0 953 1823 2623 3364 4054 4700 5306 5877 6418 0 0 0 0 0 0 0 0
0 0 0 0 0 0;
#X coords 0 1 23 -1 200 140 1;
#X restore 363 81 graph;
#X obj 382 403 tabwrite ch1;
#X obj 334 244 listfunnel;
#X obj 381 373 unpack 0 0;
#X obj 378 320 zl rev;
#X obj 299 311 zl slice 1;
#X obj 272 452 t b f f;
#X obj 296 494 - 0;
#X obj 268 410 tabread ch1;
#X obj 141 98 route 0 1 2 3 99;
#X obj 273 375 counter;
#X msg 299 339 max \$1;
#X obj 349 500 gate 1;
#X obj 348 461 < 99;
#X obj 417 510 split -10000 0;
#N canvas 0 22 450 300 (subpatch) 0;
#X array ch2 16 float 1;
#A 0 0 0 0 0 0 0 0 0 0 0 0 0 0 0 0 0;
#X coords 0 1 15 -1 200 140 1;
#X restore 567 83 graph;
#X obj 537 547 delay 1;
#X obj 644 405 tabwrite ch1;
#X obj 640 293 listfunnel;
#X obj 643 375 unpack 0 0;
#X obj 640 322 zl rev;
#X obj 549 309 zl slice 1;
#X obj 534 454 t b f f;
#X obj 558 496 - 0;
#X obj 530 412 tabread ch1;
#X obj 551 374 counter;
#X msg 550 342 max \$1;
#X obj 611 502 gate 1;
#X obj 610 463 < 99;
#X obj 679 512 split -10000 0;
#X obj 196 427 line;
#X msg 178 352 1 5;
#X obj 186 475 *~ 0;
#X msg 223 374 0 10;
#X obj 219 332 delay 50;
#X obj 133 128 phasor~ 880;
#X obj 745 461 print;
#X obj 370 275 t l l;
#X obj 100 253 bng 15 250 50 0 empty empty empty 17 7 0 10 -262144
-1 -1;
#X obj 41 121 cycle~ 440;
#X obj 109 466 *~ 0;
#X msg 33 -11 100 200 320;
#X msg 60 77 100 200 320;
#X obj 81 47 prepend set;
#X obj 150 9 timebandit~;
#X obj 147 -21 bng 15 250 50 0 empty empty empty 17 7 0 10 -262144
-1 -1;
#X msg 246 -16 load 142;
#X connect 0 0 17 0;
#X connect 1 0 4 0;
#X connect 1 0 6 0;
#X connect 1 0 20 1;
#X connect 2 0 18 0;
#X connect 2 0 33 0;
#X connect 3 0 44 0;
#X connect 3 0 48 1;
#X connect 4 0 3 0;
#X connect 5 0 3 0;
#X connect 6 0 5 0;
#X connect 10 0 45 0;
#X connect 11 0 9 0;
#X connect 11 1 9 1;
#X connect 12 0 11 0;
#X connect 13 0 19 0;
#X connect 13 0 21 1;
#X connect 14 0 1 0;
#X connect 14 1 15 1;
#X connect 14 2 15 0;
#X connect 15 0 22 0;
#X connect 16 0 14 0;
#X connect 17 0 10 0;
#X connect 17 1 26 0;
#X connect 17 4 2 0;
#X connect 18 0 16 0;
#X connect 18 0 21 0;
#X connect 19 0 18 0;
#X connect 20 0 18 0;
#X connect 21 0 20 0;
#X connect 22 1 1 1;
#X connect 24 0 35 1;
#X connect 24 0 42 0;
#X connect 24 0 39 0;
#X connect 26 0 28 0;
#X connect 26 0 29 0;
#X connect 27 0 25 0;
#X connect 27 1 25 1;
#X connect 28 0 27 0;
#X connect 29 0 34 0;
#X connect 29 0 36 1;
#X connect 30 0 24 0;
#X connect 30 1 31 1;
#X connect 30 2 31 0;
#X connect 31 0 37 0;
#X connect 32 0 30 0;
#X connect 33 0 32 0;
#X connect 33 0 36 0;
#X connect 34 0 33 0;
#X connect 35 0 33 0;
#X connect 36 0 35 0;
#X connect 37 1 24 1;
#X connect 38 0 40 1;
#X connect 39 0 38 0;
#X connect 40 0 7 1;
#X connect 41 0 38 0;
#X connect 42 0 41 0;
#X connect 43 0 40 0;
#X connect 45 0 13 0;
#X connect 45 1 12 0;
#X connect 46 0 6 0;
#X connect 46 0 4 0;
#X connect 47 0 48 0;
#X connect 48 0 7 0;
#X connect 49 0 52 0;
#X connect 51 0 50 0;
#X connect 53 0 52 0;
#X connect 54 0 52 0;
