#N canvas 596 59 821 593 10;
#X obj 151 260 timebandit~;
#X obj 147 -21 bng 15 250 50 0 empty empty empty 17 7 0 10 -262144
-1 -1;
#X msg 246 -16 load 142;
#X msg 169 18 link;
#X msg 275 56 scheme 100 324 5728;
#X msg 249 81 inst 0 violin 392 121 264;
#X msg 412 12 ip 192.168.1.150;
#X obj 94 301 snapshot~;
#X floatatom 97 340 5 0 0 0 - - -;
#X obj 53 47 bng 15 250 50 0 empty empty empty 17 7 0 10 -262144 -1
-1;
#X obj 158 300 snapshot~;
#X floatatom 161 339 5 0 0 0 - - -;
#X msg 264 105 inst 1 violin 837 121 264;
#X msg 253 129 inst 2 violin 392 263 264;
#X msg 268 153 inst 3 violin 392 121 1002;
#X msg 426 80 inst 4 violin 3200 121 264;
#X msg 441 104 inst 5 violin 500 121 264;
#X msg 430 128 inst 6 violin 392 769 264;
#X obj 479 48 bng 15 250 50 0 empty empty empty 17 7 0 10 -262144 -1
-1;
#X obj 247 325 bng 15 250 50 0 empty empty empty 17 7 0 10 -262144
-1 -1;
#X obj 273 325 bng 15 250 50 0 empty empty empty 17 7 0 10 -262144
-1 -1;
#X msg 445 152 inst 7 violin 4000 1003 3000;
#X msg 183 53 recv;
#X msg 318 251 handshake;
#X msg 298 223 linktest;
#X obj 359 316 timebandit~;
#X msg 461 240 linktest;
#X msg 399 208 port 8101;
#X msg 225 431 transport samp 1000;
#X msg 288 465 transport ms 1000;
#X msg 560 17 play;
#X obj 68 103 metro 100;
#X msg 614 25 pause;
#X msg 665 49 stop;
#X msg 328 11 port 7464;
#X msg 334 -13 port 8100;
#X msg 440 295 link;
#X msg 565 244 port 7465;
#X connect 0 0 7 0;
#X connect 0 1 10 0;
#X connect 0 8 19 0;
#X connect 0 15 20 0;
#X connect 1 0 0 0;
#X connect 2 0 0 0;
#X connect 3 0 0 0;
#X connect 4 0 0 0;
#X connect 5 0 0 0;
#X connect 6 0 0 0;
#X connect 7 0 8 0;
#X connect 9 0 31 0;
#X connect 10 0 11 0;
#X connect 12 0 0 0;
#X connect 13 0 0 0;
#X connect 14 0 0 0;
#X connect 15 0 0 0;
#X connect 16 0 0 0;
#X connect 17 0 0 0;
#X connect 18 0 5 0;
#X connect 18 0 15 0;
#X connect 18 0 12 0;
#X connect 18 0 16 0;
#X connect 18 0 13 0;
#X connect 18 0 17 0;
#X connect 18 0 14 0;
#X connect 18 0 21 0;
#X connect 21 0 0 0;
#X connect 22 0 0 0;
#X connect 23 0 0 0;
#X connect 24 0 0 0;
#X connect 26 0 25 0;
#X connect 27 0 25 0;
#X connect 28 0 0 0;
#X connect 29 0 0 0;
#X connect 30 0 0 0;
#X connect 31 0 7 0;
#X connect 31 0 10 0;
#X connect 32 0 0 0;
#X connect 33 0 0 0;
#X connect 34 0 0 0;
#X connect 35 0 0 0;
#X connect 36 0 25 0;
#X connect 37 0 25 0;
