#N canvas 596 59 821 593 10;
#X obj 120 148 timebandit~;
#X obj 147 -21 bng 15 250 50 0 empty empty empty 17 7 0 10 -262144
-1 -1;
#X msg 246 -16 load 142;
#X msg 262 24 link;
#X msg 275 56 scheme 100 324 5728;
#X obj 152 343 dac~;
#X msg 249 81 inst 0 violin 392 121 264;
#X msg 398 282;
#X obj 518 298 print tcp;
#X floatatom 468 206 5 0 0 0 - - -;
#X obj 425 326 print;
#X obj 283 245 prepend set;
#X obj 441 210 print udp;
#X obj 564 192 netreceive 9001;
#X msg 412 12 ip 192.168.1.150;
#X msg 328 11 port 7464;
#X obj 161 301 *~ 0.02;
#X obj 148 266 cycle~ 439;
#X obj 166 231 +~ 532;
#X obj 63 189 snapshot~;
#X floatatom 66 228 5 0 0 0 - - -;
#X obj 45 85 bng 15 250 50 0 empty empty empty 17 7 0 10 -262144 -1
-1;
#X connect 0 0 19 0;
#X connect 1 0 0 0;
#X connect 2 0 0 0;
#X connect 3 0 0 0;
#X connect 4 0 0 0;
#X connect 6 0 0 0;
#X connect 11 0 7 0;
#X connect 13 0 8 0;
#X connect 14 0 0 0;
#X connect 15 0 0 0;
#X connect 16 0 5 0;
#X connect 16 0 5 1;
#X connect 17 0 16 0;
#X connect 19 0 20 0;
#X connect 21 0 19 0;
