#N canvas 90 197 885 466 10;
#X msg 32 138 stop;
#X obj 32 25 loadbang;
#X obj 32 51 t b b b;
#X msg 72 113 link;
#X msg 118 85 port 8100;
#X obj 99 192 timebandit~;
#X obj 348 419 dac~;
#X obj 184 341 *~ 0;
#X obj 205 310 line 0 10;
#X obj 159 258 t b b;
#X msg 186 280 0.75;
#X msg 138 278 0 50;
#X obj 162 220 select 0 1 2 3 4 5 6 7;
#X obj 132 311 cycle~ 110;
#X obj 325 340 *~ 0;
#X obj 346 309 line 0 10;
#X obj 300 257 t b b;
#X msg 327 279 0.75;
#X msg 279 277 0 50;
#X obj 465 339 *~ 0;
#X obj 486 308 line 0 10;
#X obj 440 256 t b b;
#X msg 467 278 0.75;
#X msg 419 276 0 50;
#X obj 604 338 *~ 0;
#X obj 625 307 line 0 10;
#X obj 579 255 t b b;
#X msg 606 277 0.75;
#X msg 558 275 0 50;
#X obj 273 310 cycle~ 220;
#X obj 413 309 cycle~ 440;
#X obj 552 308 cycle~ 880;
#X connect 0 0 5 0;
#X connect 1 0 2 0;
#X connect 2 0 0 0;
#X connect 2 1 3 0;
#X connect 2 2 4 0;
#X connect 3 0 5 0;
#X connect 4 0 5 0;
#X connect 5 8 12 0;
#X connect 7 0 6 0;
#X connect 7 0 6 1;
#X connect 8 0 7 1;
#X connect 9 0 11 0;
#X connect 9 1 10 0;
#X connect 10 0 8 0;
#X connect 11 0 8 0;
#X connect 12 0 9 0;
#X connect 12 1 16 0;
#X connect 12 2 21 0;
#X connect 12 3 26 0;
#X connect 13 0 7 0;
#X connect 14 0 6 0;
#X connect 14 0 6 1;
#X connect 15 0 14 1;
#X connect 16 0 18 0;
#X connect 16 1 17 0;
#X connect 17 0 15 0;
#X connect 18 0 15 0;
#X connect 19 0 6 0;
#X connect 19 0 6 1;
#X connect 20 0 19 1;
#X connect 21 0 23 0;
#X connect 21 1 22 0;
#X connect 22 0 20 0;
#X connect 23 0 20 0;
#X connect 24 0 6 0;
#X connect 24 0 6 1;
#X connect 25 0 24 1;
#X connect 26 0 28 0;
#X connect 26 1 27 0;
#X connect 27 0 25 0;
#X connect 28 0 25 0;
#X connect 29 0 14 0;
#X connect 30 0 19 0;
#X connect 31 0 24 0;
