#N canvas 500 82 821 593 10;
#X msg 393 275 link;
#X msg 249 93 inst 0 violin 392 121 264;
#X msg 393 219 ip 192.168.1.150;
#X floatatom 176 451 5 0 0 0 - - -;
#X obj 240 428 snapshot~;
#X floatatom 240 451 5 0 0 0 - - -;
#X msg 157 278 transport samp 1000;
#X msg 157 302 transport ms 1000;
#X msg 157 229 play;
#X obj 176 388 metro 100;
#X msg 157 253 pause;
#X msg 157 205 stop;
#X msg 272 117 inst 1 viola 837 121 264;
#X msg 295 141 inst 2 cello 392 263 264;
#X msg 317 166 inst 3 bass 392 121 1002;
#X obj 361 342 select 0 1 2 3 4 5 6 7;
#X obj 360 374 bng 15 250 50 0 empty empty empty 17 7 0 10 -262144
-1 -1;
#X obj 376 374 bng 15 250 50 0 empty empty empty 17 7 0 10 -262144
-1 -1;
#X obj 391 374 bng 15 250 50 0 empty empty empty 17 7 0 10 -262144
-1 -1;
#X obj 407 374 bng 15 250 50 0 empty empty empty 17 7 0 10 -262144
-1 -1;
#X obj 423 374 bng 15 250 50 0 empty empty empty 17 7 0 10 -262144
-1 -1;
#X obj 439 374 bng 15 250 50 0 empty empty empty 17 7 0 10 -262144
-1 -1;
#X obj 455 374 bng 15 250 50 0 empty empty empty 17 7 0 10 -262144
-1 -1;
#X obj 471 374 bng 15 250 50 0 empty empty empty 17 7 0 10 -262144
-1 -1;
#X obj 157 92 loadbang;
#X obj 157 118 t b b b;
#X obj 304 428 snapshot~;
#X floatatom 304 451 5 0 0 0 - - -;
#X obj 368 428 snapshot~;
#X floatatom 368 451 5 0 0 0 - - -;
#X obj 176 428 snapshot~;
#X text 248 50 add instruments with inst commands: inst <index> <name>
<beat lengths>;
#X text 86 205 transport;
#X text -25 282 transport locations: transport <unit> <value>;
#X text 445 409 timebandit~ outputs descending phasor signals for sample-accurate
timing or float indices for instruments;
#X text 470 247 enter networking information and link to a remote timebandit
python package process for external control;
#X msg 649 139 link;
#X msg 393 247 port 8100;
#X msg 649 111 port 8101;
#X obj 298 316 timebandit~;
#X obj 536 127 timebandit~;
#X obj 566 198 snapshot~;
#X floatatom 566 221 5 0 0 0 - - -;
#X obj 567 364 *~ 0;
#X obj 603 278 cycle~ 440;
#X obj 540 329 line 0 10;
#X obj 494 277 t b b;
#X msg 521 299 0.75;
#X msg 473 297 0 50;
#X obj 549 464 dac~;
#X obj 675 370 cycle~ 880;
#X obj 749 369 *~ 0;
#X obj 722 334 line 0 10;
#X obj 676 282 t b b;
#X msg 703 304 0.75;
#X msg 655 302 0 50;
#X connect 0 0 39 0;
#X connect 1 0 39 0;
#X connect 2 0 39 0;
#X connect 4 0 5 0;
#X connect 6 0 39 0;
#X connect 7 0 39 0;
#X connect 8 0 39 0;
#X connect 9 0 4 0;
#X connect 9 0 30 0;
#X connect 9 0 26 0;
#X connect 9 0 28 0;
#X connect 9 0 41 0;
#X connect 10 0 39 0;
#X connect 11 0 39 0;
#X connect 12 0 39 0;
#X connect 13 0 39 0;
#X connect 14 0 39 0;
#X connect 15 0 16 0;
#X connect 15 0 46 0;
#X connect 15 1 17 0;
#X connect 15 1 53 0;
#X connect 15 2 18 0;
#X connect 15 3 19 0;
#X connect 15 4 20 0;
#X connect 15 5 21 0;
#X connect 15 6 22 0;
#X connect 15 7 23 0;
#X connect 24 0 25 0;
#X connect 25 0 11 0;
#X connect 25 1 9 0;
#X connect 26 0 27 0;
#X connect 28 0 29 0;
#X connect 30 0 3 0;
#X connect 36 0 40 0;
#X connect 37 0 39 0;
#X connect 38 0 40 0;
#X connect 39 0 30 0;
#X connect 39 1 4 0;
#X connect 39 2 26 0;
#X connect 39 3 28 0;
#X connect 39 8 15 0;
#X connect 40 0 41 0;
#X connect 40 8 15 0;
#X connect 41 0 42 0;
#X connect 43 0 49 0;
#X connect 43 0 49 1;
#X connect 44 0 43 0;
#X connect 45 0 43 1;
#X connect 46 0 48 0;
#X connect 46 1 47 0;
#X connect 47 0 45 0;
#X connect 48 0 45 0;
#X connect 50 0 51 0;
#X connect 51 0 49 0;
#X connect 51 0 49 1;
#X connect 52 0 51 1;
#X connect 53 0 55 0;
#X connect 53 1 54 0;
#X connect 54 0 52 0;
#X connect 55 0 52 0;
